<?xml version="1.0" encoding="UTF-8" standalone="no"?>
<!DOCTYPE svg PUBLIC "-//W3C//DTD SVG 1.1//EN"
 "http://www.w3.org/Graphics/SVG/1.1/DTD/svg11.dtd">
<!-- Generated by graphviz version 2.40.1 (20161225.0304)
 -->
<!-- Title: a_nice_graph Pages: 1 -->
<svg width="638pt" height="116pt"
 viewBox="0.00 0.00 638.00 116.00" xmlns="http://www.w3.org/2000/svg" xmlns:xlink="http://www.w3.org/1999/xlink">
<g id="graph0" class="graph" transform="scale(1 1) rotate(0) translate(4 112)">
<title>a_nice_graph</title>
<polygon fill="#ffffff" stroke="transparent" points="-4,4 -4,-112 634,-112 634,4 -4,4"/>
<!-- a -->
<g id="node1" class="node">
<title>a</title>
<ellipse fill="none" stroke="#000000" cx="315" cy="-90" rx="27" ry="18"/>
<text text-anchor="middle" x="315" y="-85.8" font-family="Helvetica,sans-Serif" font-size="14.00" fill="#000000">top</text>
</g>
<!-- b -->
<g id="node2" class="node">
<title>b</title>
<ellipse fill="none" stroke="#000000" cx="27" cy="-18" rx="27" ry="18"/>
<text text-anchor="middle" x="27" y="-13.8" font-family="Helvetica,sans-Serif" font-size="14.00" fill="#000000">10</text>
</g>
<!-- a&#45;&gt;b -->
<g id="edge1" class="edge">
<title>a&#45;&gt;b</title>
<path fill="none" stroke="#000000" d="M288.2789,-86.5398C241.5986,-79.9998 142.5865,-63.9174 63,-36 61.1208,-35.3408 59.2138,-34.6053 57.3085,-33.8186"/>
<polygon fill="#000000" stroke="#000000" points="58.4864,-30.51 47.9328,-29.5755 55.6002,-36.8873 58.4864,-30.51"/>
</g>
<!-- c -->
<g id="node3" class="node">
<title>c</title>
<ellipse fill="none" stroke="#000000" cx="99" cy="-18" rx="27" ry="18"/>
<text text-anchor="middle" x="99" y="-13.8" font-family="Helvetica,sans-Serif" font-size="14.00" fill="#000000">11</text>
</g>
<!-- a&#45;&gt;c -->
<g id="edge2" class="edge">
<title>a&#45;&gt;c</title>
<path fill="none" stroke="#000000" d="M289.4913,-83.8285C254.1788,-74.9533 188.6807,-57.2886 135,-36 133.1488,-35.2658 131.2635,-34.4721 129.3748,-33.641"/>
<polygon fill="#000000" stroke="#000000" points="130.5848,-30.3432 120.0435,-29.279 127.6204,-36.6845 130.5848,-30.3432"/>
</g>
<!-- d -->
<g id="node4" class="node">
<title>d</title>
<ellipse fill="none" stroke="#000000" cx="171" cy="-18" rx="27" ry="18"/>
<text text-anchor="middle" x="171" y="-13.8" font-family="Helvetica,sans-Serif" font-size="14.00" fill="#000000">12</text>
</g>
<!-- a&#45;&gt;d -->
<g id="edge3" class="edge">
<title>a&#45;&gt;d</title>
<path fill="none" stroke="#000000" d="M293.1295,-79.0647C268.7778,-66.8889 229.238,-47.119 201.7715,-33.3858"/>
<polygon fill="#000000" stroke="#000000" points="203.114,-30.1439 192.6045,-28.8022 199.9835,-36.4049 203.114,-30.1439"/>
</g>
<!-- e -->
<g id="node5" class="node">
<title>e</title>
<ellipse fill="none" stroke="#000000" cx="243" cy="-18" rx="27" ry="18"/>
<text text-anchor="middle" x="243" y="-13.8" font-family="Helvetica,sans-Serif" font-size="14.00" fill="#000000">13</text>
</g>
<!-- a&#45;&gt;e -->
<g id="edge4" class="edge">
<title>a&#45;&gt;e</title>
<path fill="none" stroke="#000000" d="M299.7307,-74.7307C289.803,-64.803 276.6847,-51.6847 265.5637,-40.5637"/>
<polygon fill="#000000" stroke="#000000" points="267.7933,-37.8436 258.2473,-33.2473 262.8436,-42.7933 267.7933,-37.8436"/>
</g>
<!-- f -->
<g id="node6" class="node">
<title>f</title>
<ellipse fill="none" stroke="#000000" cx="315" cy="-18" rx="27" ry="18"/>
<text text-anchor="middle" x="315" y="-13.8" font-family="Helvetica,sans-Serif" font-size="14.00" fill="#000000">14</text>
</g>
<!-- a&#45;&gt;f -->
<g id="edge5" class="edge">
<title>a&#45;&gt;f</title>
<path fill="none" stroke="#000000" d="M315,-71.8314C315,-64.131 315,-54.9743 315,-46.4166"/>
<polygon fill="#000000" stroke="#000000" points="318.5001,-46.4132 315,-36.4133 311.5001,-46.4133 318.5001,-46.4132"/>
</g>
<!-- g -->
<g id="node7" class="node">
<title>g</title>
<ellipse fill="none" stroke="#000000" cx="387" cy="-18" rx="27" ry="18"/>
<text text-anchor="middle" x="387" y="-13.8" font-family="Helvetica,sans-Serif" font-size="14.00" fill="#000000">15</text>
</g>
<!-- a&#45;&gt;g -->
<g id="edge6" class="edge">
<title>a&#45;&gt;g</title>
<path fill="none" stroke="#000000" d="M330.2693,-74.7307C340.197,-64.803 353.3153,-51.6847 364.4363,-40.5637"/>
<polygon fill="#000000" stroke="#000000" points="367.1564,-42.7933 371.7527,-33.2473 362.2067,-37.8436 367.1564,-42.7933"/>
</g>
<!-- h -->
<g id="node8" class="node">
<title>h</title>
<ellipse fill="none" stroke="#000000" cx="459" cy="-18" rx="27" ry="18"/>
<text text-anchor="middle" x="459" y="-13.8" font-family="Helvetica,sans-Serif" font-size="14.00" fill="#000000">16</text>
</g>
<!-- a&#45;&gt;h -->
<g id="edge7" class="edge">
<title>a&#45;&gt;h</title>
<path fill="none" stroke="#000000" d="M336.8705,-79.0647C361.2222,-66.8889 400.762,-47.119 428.2285,-33.3858"/>
<polygon fill="#000000" stroke="#000000" points="430.0165,-36.4049 437.3955,-28.8022 426.886,-30.1439 430.0165,-36.4049"/>
</g>
<!-- i -->
<g id="node9" class="node">
<title>i</title>
<ellipse fill="none" stroke="#000000" cx="531" cy="-18" rx="27" ry="18"/>
<text text-anchor="middle" x="531" y="-13.8" font-family="Helvetica,sans-Serif" font-size="14.00" fill="#000000">17</text>
</g>
<!-- a&#45;&gt;i -->
<g id="edge8" class="edge">
<title>a&#45;&gt;i</title>
<path fill="none" stroke="#000000" d="M340.5087,-83.8285C375.8212,-74.9533 441.3193,-57.2886 495,-36 496.8512,-35.2658 498.7365,-34.4721 500.6252,-33.641"/>
<polygon fill="#000000" stroke="#000000" points="502.3796,-36.6845 509.9565,-29.279 499.4152,-30.3432 502.3796,-36.6845"/>
</g>
<!-- j -->
<g id="node10" class="node">
<title>j</title>
<ellipse fill="none" stroke="#000000" cx="603" cy="-18" rx="27" ry="18"/>
<text text-anchor="middle" x="603" y="-13.8" font-family="Helvetica,sans-Serif" font-size="14.00" fill="#000000">18</text>
</g>
<!-- a&#45;&gt;j -->
<g id="edge9" class="edge">
<title>a&#45;&gt;j</title>
<path fill="none" stroke="#000000" d="M341.7211,-86.5398C388.4014,-79.9998 487.4135,-63.9174 567,-36 568.8792,-35.3408 570.7862,-34.6053 572.6915,-33.8186"/>
<polygon fill="#000000" stroke="#000000" points="574.3998,-36.8873 582.0672,-29.5755 571.5136,-30.51 574.3998,-36.8873"/>
</g>
</g>
</svg>
